# xmcd
#
# Track frame offsets: 
#        150
#        12045
#        26745
#
# Disc length: 626 seconds
#
# Revision: 0
# Processed by: cddbd v1.5.2PL0 Copyright (c) Steve Scherf et al.
# Submitted via: ExactAudioCopy v0.95b4
#
DISCID=17027003
DTITLE=Don Fardon - Don Fardon "Belfast Boy" (Promo Single)
DYEAR=2005
DGENRE=Country
TTITLE0=Belfast Boy (Radio Version)
TTITLE1=Belfast Boy (Country Version)
TTITLE2=Indian Reservation (Extended Version)
EXTD=
EXTT0=
EXTT1=
EXTT2=
PLAYORDER=
